<svg id="Layer_1" data-name="Layer 1" xmlns="http://www.w3.org/2000/svg" width="800" height="800" viewBox="0 0 800 800"><defs><style>.cls-1{fill:#2367ac;}.cls-2{fill:#fff;}.cls-3{fill:none;}</style></defs><title>clever-logo-freelogovectors.net_</title><g id="Mask"><path id="path-1" class="cls-1" d="M290.57,38.5H509.43c72.59,0,108.87,0,147.94,12.35a153.56,153.56,0,0,1,91.78,91.78C761.5,181.7,761.5,218,761.5,290.57V509.43c0,72.59,0,108.87-12.35,147.94a153.52,153.52,0,0,1-91.78,91.77C618.3,761.5,582,761.5,509.43,761.5H290.57c-72.59,0-108.87,0-147.94-12.36a153.52,153.52,0,0,1-91.78-91.77C38.5,618.3,38.5,582,38.5,509.43V290.57c0-72.58,0-108.87,12.35-147.94a153.56,153.56,0,0,1,91.78-91.78C181.7,38.5,218,38.5,290.57,38.5h0"/></g><g id="Fill-1"><path id="path-4" class="cls-2" d="M423.61,636.6c-135.09,0-235.43-103.91-235.43-235.26V400c0-130,98.37-236.56,239.36-236.56,86.57,0,138.37,28.76,181,70.58L544.27,307.9c-35.41-32-71.48-51.63-117.38-51.63-77.38,0-133.13,64-133.13,142.46V400c0,78.42,54.43,143.77,133.13,143.77,52.46,0,84.59-20.91,120.66-53.58l64.27,64.69c-47.22,50.32-99.68,81.69-188.21,81.69"/><path id="path-4-2" data-name="path-4" class="cls-2" d="M423.61,636.6c-135.09,0-235.43-103.91-235.43-235.26V400c0-130,98.37-236.56,239.36-236.56,86.57,0,138.37,28.76,181,70.58L544.27,307.9c-35.41-32-71.48-51.63-117.38-51.63-77.38,0-133.13,64-133.13,142.46V400c0,78.42,54.43,143.77,133.13,143.77,52.46,0,84.59-20.91,120.66-53.58l64.27,64.69c-47.22,50.32-99.68,81.69-188.21,81.69"/></g><rect class="cls-3" width="800" height="800"/></svg>